<?xml version="1.0" encoding="utf-8"?>
<!-- Generator: Adobe Illustrator 27.9.0, SVG Export Plug-In . SVG Version: 6.00 Build 0)  -->
<svg version="1.1" id="Layer_1" xmlns="http://www.w3.org/2000/svg" xmlns:xlink="http://www.w3.org/1999/xlink" x="0px" y="0px"
	 viewBox="0 0 792 612" style="enable-background:new 0 0 792 612;" xml:space="preserve">
<style type="text/css">
	.st0{fill:#F26722;}
	.st1{fill:#F15A29;}
</style>
<g>
	<path class="st1" d="M309.99,285.14c3.38,3.07,6.26,5.77,9.22,8.38c36.8,32.37,73.61,64.73,110.43,97.07
		c4.04,3.55,8.14,7.04,12.3,10.44c2.33,1.9,2.56,3.72,0.97,6.33c-11.62,19.01-23.19,38.05-34.61,57.18
		c-2.2,3.68-4.02,3.17-6.76,0.76c-17.97-15.86-36.08-31.57-54.03-47.45c-32.1-28.41-64.12-56.92-96.18-85.38
		c-16.66-14.79-33.42-29.47-49.94-44.41c-3.24-2.93-6.51-3.99-10.74-3.97c-27.51,0.13-55.02,0.08-82.52,0.09
		c-0.92,0-1.84,0.01-2.77,0c-6.28-0.06-6.54-0.5-3.3-6.1c3.62-6.25,7.29-12.47,10.99-18.67c7.8-13.06,15.85-25.97,23.36-39.2
		c2.82-4.97,6.29-6.53,11.84-6.52c74.38,0.16,148.76,0,223.14,0.23c11.38,0.04,19.66-3.71,25.77-13.52
		c6.49-10.42,13.79-20.35,20.88-30.39c3.75-5.31,6.24-10.78,2.95-17.12c-3.37-6.5-9.55-8.56-16.24-8.67
		c-14.44-0.24-28.89-0.03-43.34-0.03c-99.89,0.01-199.78,0.02-299.68-0.02c-2.54,0-6.07,1.18-7.4-1.02
		c-1.55-2.57,1.51-4.97,2.86-7.25c11.44-19.3,23.03-38.5,34.38-57.85c2.05-3.5,4.46-4.88,8.48-4.88
		c100.66,0.07,201.32-0.15,301.98,0.15c27.98,0.08,53.4,8.35,73.43,29.02c12.79,13.19,21.9,28.57,24.12,47.19
		c1.86,15.57-0.58,30.69-9.3,43.78c-14.99,22.5-30.01,45.08-46.59,66.4c-13.24,17.03-32.38,24.36-54.01,24.43
		c-24.28,0.08-48.56,0.01-72.84,0.05C314.92,284.18,312.89,283.82,309.99,285.14z"/>
	<path class="st1" d="M636.51,213.08c41.18,0,82.36-0.02,123.54,0.04c2.68,0,6.41-1.29,7.81,1.1c1.6,2.75-1.77,5.17-3.22,7.53
		c-11.17,18.2-22.58,36.26-33.67,54.5c-2.7,4.43-5.87,6.2-11.16,6.15c-26.73-0.25-53.47-0.04-80.21-0.19
		c-4.37-0.03-6.91,1.49-9.21,5.24c-45.97,74.9-92.08,149.72-138.16,224.55c-8.54,13.87-17.2,27.66-25.59,41.62
		c-2.23,3.7-4.82,5.32-9.23,5.29c-24.12-0.19-48.25-0.1-72.37-0.16c-1.78,0-4.09,0.73-5.18-0.98c-1.18-1.84,0.83-3.37,1.72-4.86
		c51.02-85.13,102.71-169.86,154.46-254.55c2.4-3.93,4.76-7.89,7.15-11.83c1.79-2.95,0.81-4.22-2.48-4.21
		c-6.61,0.02-13.21-0.02-19.82-0.03c-19.05,0-38.11,0.02-57.16-0.01c-1.63,0-3.8,0.7-4.75-0.86c-1.16-1.92,0.9-3.36,1.89-4.78
		c13.56-19.57,27.24-39.06,40.7-58.7c2.45-3.57,5.27-4.92,9.55-4.91c41.79,0.12,83.59,0.07,125.39,0.07
		C636.51,213.1,636.51,213.09,636.51,213.08z"/>
</g>
</svg>
